<svg width="176" height="176" viewBox="0 0 176 176" fill="none" xmlns="http://www.w3.org/2000/svg">
    <g clip-path="url(#xy1tmfybua)">
        <rect width="176" height="176" rx="88" fill="url(#4bv04phbmb)"/>
        <circle cx="86.5" cy="61.5" r="26.5" fill="#FCE4BE"/>
        <g clip-path="url(#jyzln53czc)" fill="#B47060">
            <path d="M87.357 82.806a5.854 5.854 0 0 1-.887-.062c-3.516-.623-6.962-3.98-7.934-4.995-2.915-2.974-5.041-6.343-6.146-9.736-.804-2.54-1.033-4.327-1.256-6.053a30.214 30.214 0 0 0-.549-3.283c-.328-1.421-.797-2.769-1.25-4.073-.295-.849-.6-1.722-.865-2.615-.257-.82-2.854-9.72.812-14.22a.613.613 0 0 1 .95.774c-3.08 3.783-1.025 11.94-.607 13.044 0 .013.014.039.019.054.256.862.555 1.722.846 2.56.46 1.335.945 2.715 1.286 4.197.255 1.124.447 2.26.574 3.406.215 1.673.436 3.404 1.208 5.833 1.045 3.215 3.07 6.415 5.855 9.26 1.875 1.951 4.762 4.197 7.256 4.638 3.81.589 13.848-3.453 18.111-11.547a.612.612 0 0 1 1.129.107.614.614 0 0 1-.044.467c-4.213 8.006-13.896 12.244-18.508 12.244zM115.592 85.095a.61.61 0 0 1-.449-.195 10.815 10.815 0 0 1-1.622-2.255c-2.37-4.248-2.948-20.953-2.971-21.662a.618.618 0 0 1 .355-.594.617.617 0 0 1 .683.115.61.61 0 0 1 .187.439c0 .17.589 17.12 2.817 21.105.393.733.88 1.411 1.449 2.017a.618.618 0 0 1 .159.315.619.619 0 0 1-.27.62.61.61 0 0 1-.338.099v-.004z"/>
            <path d="M82.565 67.385a.605.605 0 0 1-.367-.123c-1.4-1.052-2.04-1.828-2.143-2.596-.1-.74.326-1.288.7-1.772.374-.483.784-1.009.803-1.83.079-2.21-1.243-4.384-1.262-4.405a.614.614 0 0 1 1.042-.645c.063.1 1.53 2.505 1.44 5.083-.025 1.219-.623 1.988-1.058 2.55-.31.399-.484.635-.459.856.036.268.354.794 1.665 1.78a.613.613 0 0 1-.369 1.102h.008zM69.19 51.142a.614.614 0 0 1-.419-1.06c.881-.821 1.881-1.617 4.418-2.325a.614.614 0 0 1 .334 1.18c-2.274.635-3.117 1.3-3.91 2.041a.611.611 0 0 1-.422.164zM90.266 47.794a.613.613 0 0 1-.37-.125c-2.871-2.187-5.909-1.402-6.036-1.367a.613.613 0 0 1-.325-1.181c.15-.042 3.729-.992 7.102 1.572a.613.613 0 0 1-.37 1.101zM110.509 57.678a.612.612 0 0 1-.229-1.183c2.839-1.12 4.312-3.055 4.506-5.917.154-2.009-.582-3.727-1.92-4.494-1.315-.756-3.019-.493-4.798.74a.613.613 0 0 1-.698-1.008c2.156-1.492 4.383-1.784 6.106-.795 1.752 1.003 2.722 3.166 2.526 5.644-.23 3.33-2.001 5.678-5.282 6.97a.59.59 0 0 1-.211.044z"/>
            <path d="M110.139 52.361a.61.61 0 0 1-.604-.505.612.612 0 0 1 .016-.282 5.515 5.515 0 0 1 1.299-2.122.626.626 0 0 1 .44-.195.616.616 0 0 1 .579.389.607.607 0 0 1-.159.679c-.441.454-.777 1-.984 1.598a.609.609 0 0 1-.587.438zM87.965 89.845a.612.612 0 0 1-.515-.943c.53-.839.854-1.792.946-2.78a21.141 21.141 0 0 0-.275-3.897.614.614 0 1 1 1.206-.22c.23 1.383.327 2.784.293 4.185v.04a7.472 7.472 0 0 1-1.135 3.329.613.613 0 0 1-.52.286zM97.519 50.22c-5.343 0-10.71-3.362-15.028-9.717-2.411-3.526-4.734-5.5-6.225-5.27-.815.123-1.237.963-1.445 1.645a.611.611 0 1 1-1.171-.359c.564-1.845 1.634-2.377 2.432-2.498 2.059-.31 4.624 1.69 7.422 5.792 4.607 6.78 12.424 12.243 20.551 7.233a.608.608 0 0 1 .69.014.609.609 0 0 1 .239.649.618.618 0 0 1-.286.38c-2.318 1.433-4.746 2.13-7.18 2.13z"/>
            <path d="M129.141 69.48a.61.61 0 0 1-.57-.843.613.613 0 0 1 .257-.297c3.855-2.276 3.886-8.703.093-19.649-4.39-12.967-12.543-26.278-18.56-30.31-8.02-5.388-14.272-5.793-16.58-5.708-11.936.339-19.305 6.51-19.378 6.574a.612.612 0 1 1-.796-.931c.31-.266 7.749-6.514 20.137-6.867 2.431-.08 8.978.33 17.299 5.919 7.195 4.822 15.178 19.53 19.037 30.927 4.067 11.74 3.869 18.447-.629 21.101a.61.61 0 0 1-.31.084zM69.658 88.382h-.046c-1.617-.115-3.077-.985-4.339-2.57-6.3-7.909-6.692-32.529-4.556-46.524 1.734-11.366 7.09-17.203 11.628-17.95a.613.613 0 1 1 .199 1.21c-3.968.652-8.983 6.228-10.616 16.925-2.15 14.076-1.553 38.224 4.303 45.58 1.04 1.306 2.207 2.016 3.47 2.11a.613.613 0 0 1-.044 1.224v-.005z"/>
            <path d="M72.375 32.481a.614.614 0 0 1-.61-.574c-.136-1.915.266-4.006 1.25-6.575a.615.615 0 1 1 1.149.44c-.91 2.364-1.294 4.344-1.175 6.055a.61.61 0 0 1-.568.653l-.046.001zM76.263 88.629c-4.16 0-6.791-4.654-7.657-7.382a.613.613 0 0 1 1.168-.372c.024.077 2.504 7.65 7.629 6.385a.613.613 0 1 1 .293 1.19c-.468.118-.95.178-1.433.179zM81.48 87.638c-2.362 0-3.626-1.4-3.692-1.474a.613.613 0 0 1 .919-.804c.06.067 1.585 1.704 4.522.765a.613.613 0 0 1 .374 1.168 6.99 6.99 0 0 1-2.122.345zM123.491 74.198a.615.615 0 0 1-.584-.426.617.617 0 0 1 .229-.686c2.844-2.015 3.748-6.16 2.482-11.375a.615.615 0 0 1 .91-.652c.137.08.237.21.281.362 1.391 5.73.311 10.345-2.965 12.665a.61.61 0 0 1-.353.112zM117.094 77.9a.615.615 0 0 1-.555-.872.613.613 0 0 1 .28-.289c1.613-.803 2.526-2.03 2.727-3.631a.619.619 0 0 1 .229-.413.605.605 0 0 1 .455-.127.61.61 0 0 1 .517.449c.021.078.026.16.016.24-.247 2.005-1.421 3.587-3.394 4.578a.618.618 0 0 1-.275.065zM153.716 172.508c-5.741 0-19.936-.587-24.432-1.202-1.903-.262-9.725-.939-9.803-.946a.614.614 0 0 1 .104-1.221c.324.028 7.932.689 9.866.952 4.765.653 21.486 1.297 25.646 1.175 8.805-.269 14.071-2.701 16.1-7.438 1.492-3.496-1.554-17.081-4.086-25.163-4.887-15.592-14.689-37.78-19.535-41.951-5.086-4.378-17.515-9.521-25.488-11.4a.61.61 0 0 1-.438-.732.613.613 0 0 1 .719-.46c8.11 1.91 20.781 7.17 26.006 11.664 5.501 4.735 15.464 28.341 19.904 42.512 2.48 7.915 5.772 21.976 4.043 26.012-2.236 5.221-7.859 7.897-17.188 8.181-.382.011-.859.017-1.418.017z"/>
            <path d="M147.356 151.737a.606.606 0 0 1-.546-.335c-.459-.904-11.268-22.212-12.4-27.978a.614.614 0 0 1 1.204-.236c1.101 5.6 12.179 27.439 12.291 27.659a.612.612 0 0 1-.549.89z"/>
            <path d="M129.016 155.774h-.159c-4.992-.229-8.746-.388-8.746-.388a.61.61 0 0 1-.388-1.063.612.612 0 0 1 .44-.161s3.755.161 8.749.387c1.986.087 10.661-2.131 13.77-3.058 6.781-2.023 16.034-.558 16.425-.494a.612.612 0 1 1-.197 1.209c-.093-.015-9.369-1.482-15.878.459-2.174.645-11.366 3.108-14.016 3.109z"/>
            <path d="M119.648 170.365h-.032c-1.282-.032-1.952-2.013-2.146-3.857a.612.612 0 0 1 1.218-.13c.188 1.751.73 2.641.952 2.755.102-.068.658-.563 1.079-3.23.823-5.206.048-10.136-.698-10.499 0 0-.03.019-.07.048a.617.617 0 0 1-.874-.122.612.612 0 0 1 .153-.869c.459-.337.984-.375 1.426-.104 1.768 1.083 1.933 7.565 1.274 11.737-.454 2.873-1.201 4.271-2.282 4.271zM44.729 124.24a.611.611 0 0 1-.517-.941c.104-.161 10.314-16.209 13.15-20.498 1.745-2.641 5.335-7.297 9.782-8.876 3.712-1.315 15.324-4.435 15.817-4.567a.614.614 0 0 1 .321 1.186c-.12.032-12.055 3.235-15.729 4.537-4.112 1.46-7.51 5.889-9.17 8.398-2.829 4.278-13.034 20.317-13.136 20.474a.612.612 0 0 1-.518.287zM66.874 162.523a.616.616 0 0 1-.608-.553c-.037-.365-.403-1.148-.827-2.05-1.462-3.122-4.185-8.931-2.854-16.789.514-3.038.989-5.571 1.408-7.807.934-4.997 1.607-8.61 2.027-13.847a.613.613 0 1 1 1.222.098c-.422 5.303-1.138 9.129-2.045 13.974-.418 2.231-.89 4.759-1.403 7.787-1.263 7.48 1.349 13.064 2.755 16.064.53 1.13.879 1.876.936 2.449a.614.614 0 0 1-.549.67l-.062.004z"/>
            <path d="M59.325 148.638a.61.61 0 0 1-.599-.484.611.611 0 0 1 .084-.461l3.757-5.809a.612.612 0 0 1 .85-.183.613.613 0 0 1 .183.849l-3.756 5.809a.618.618 0 0 1-.52.279zM22.924 126.153h-.063a.61.61 0 0 1-.547-.671c.114-1.178 1.962-8.496 4.003-16.544.622-2.454 1.115-4.392 1.31-5.209.288-1.2 2.09-10.299 2.108-10.39a.613.613 0 0 1 .265-.375.613.613 0 0 1 .937.612c-.073.377-1.824 9.215-2.118 10.439-.198.824-.69 2.765-1.314 5.223-1.44 5.679-3.851 15.182-3.972 16.367a.615.615 0 0 1-.609.548zM44.517 126.778a.506.506 0 0 1-.285-.067.62.62 0 0 1-.3-.36.615.615 0 0 1-.026-.238c.181-2.026-.178-6.929-.494-11.251-.344-4.659-.542-7.562-.366-8.485.23-1.199 1.377-10.002 1.391-10.09a.613.613 0 0 1 1.215.158c-.047.364-1.166 8.928-1.402 10.161-.155.813.115 4.551.384 8.166.32 4.372.688 9.327.492 11.453a.616.616 0 0 1-.61.553z"/>
            <path d="M41.398 97.852a18.696 18.696 0 0 1-5.367-.83c-4.29-1.328-6.383-2.672-6.221-3.994.044-.366.353-1.23 2.24-1.335a.614.614 0 0 1 .07 1.224c-.709.04-1.012.207-1.088.276.092.313 1.21 1.377 5.362 2.66 3.903 1.208 7.1.754 7.88.318a3.23 3.23 0 0 0-.713-.32.613.613 0 0 1 .395-1.16c1.632.555 1.778 1.278 1.608 1.786-.284.9-1.982 1.375-4.166 1.375zM116.276 110.245a.787.787 0 0 1-.254-.042c-1.065-.359-1.08-1.929-1.101-4.101-.016-1.672-.033-3.567-.604-4.529-.351-.595-.738-.941-1.148-1.034a1.2 1.2 0 0 0-.862.17.617.617 0 0 1-.852-.141.614.614 0 0 1-.11-.451.614.614 0 0 1 .24-.397 2.402 2.402 0 0 1 1.815-.385c.769.156 1.434.697 1.974 1.607.737 1.246.756 3.316.775 5.143.008.863.019 2.081.165 2.667 1.43-2.492 4.763-16.828 5.166-23.689.063-1.059-1.607-3.83-3.773-5.683-1.986-1.697-4.801-1.273-4.822-1.263a.614.614 0 0 1-.197-1.21c.137-.022 3.395-.526 5.821 1.547 2.372 2.028 4.295 5.09 4.2 6.687-.345 5.84-3.929 23.591-5.942 24.947a.879.879 0 0 1-.491.157zM84.223 111.219a.929.929 0 0 1-.21-.024c-.392-.086-1.313-.29-1.782-8.368-.291-5.033-.142-9.988.4-13.261.476-2.87 1.85-6.53 5.693-7.632l.107-.03a.613.613 0 0 1 .675 1.014 1.086 1.086 0 0 1-.444.195c-2.591.742-4.214 2.985-4.822 6.652-1.095 6.608-.311 17.107.427 19.786.218-.842.355-2.471.444-3.541.136-1.613.263-3.138.588-3.96.333-.846.882-1.168 1.283-1.288 1.075-.323 2.181.42 2.296.506a.617.617 0 0 1 .262.641.612.612 0 0 1-.966.363c-.185-.128-.816-.468-1.245-.336-.076.023-.308.095-.493.563-.259.656-.385 2.16-.507 3.613-.23 2.693-.401 4.372-1.139 4.915a.959.959 0 0 1-.567.192z"/>
            <path d="M96.279 152.632a.613.613 0 0 1-.61-.555c-.614-6.367-.069-18.352.37-27.982.3-6.566.559-12.237.406-14.778-.138-2.305-2.03-5.372-4.032-8.622-2.39-3.875-4.862-7.885-5.166-11.672a.612.612 0 1 1 1.221-.099c.285 3.494 2.677 7.375 4.992 11.129 2.086 3.383 4.057 6.578 4.214 9.184.156 2.607-.105 8.307-.406 14.908-.437 9.592-.98 21.528-.374 27.81a.613.613 0 0 1-.551.669l-.064.008z"/>
            <path d="M97.156 111.439a.61.61 0 0 1-.602-.502c-.02-.115-.475-2.713.731-4.641 2.678-4.272 6.106-7.233 9.131-9.842 4.151-3.582 7.735-6.676 8.611-12.113a.61.61 0 0 1 .701-.495.612.612 0 0 1 .509.691c-.951 5.878-4.873 9.262-9.024 12.845-3.1 2.679-6.315 5.449-8.892 9.565-.952 1.52-.574 3.748-.565 3.771a.61.61 0 0 1-.495.711.535.535 0 0 1-.105.01zM72.546 186.16a.613.613 0 0 1-.214-1.187l31.094-11.61c.574-.429.651-.713.64-.752-.01-.039-.21-.241-.918-.317l-37.344-3.958a.632.632 0 0 1-.43-.217.615.615 0 0 1 .314-.989.615.615 0 0 1 .245-.013l37.345 3.958c1.481.157 1.873.833 1.977 1.223.103.389.091 1.202-1.177 2.109a.636.636 0 0 1-.141.075l-31.176 11.639a.63.63 0 0 1-.215.039z"/>
            <path d="M74.327 187.443a4.867 4.867 0 0 1-.566-.03l-74.02-5.324c-.198-.018-.404-.029-.621-.042-1.608-.092-4.031-.229-4.733-2.656-.532-1.378-19.518-50.729-20.175-52.504-.502-1.363-.484-2.591.051-3.37.263-.381.774-.839 1.714-.852h.038l71.067 3.42h.143c2.88 0 4.814 1.034 5.453 2.917.73 2.15 18.807 53.501 19.936 56.716.975.78 2.716.508 3.683.114l26.461-9.9c1.094-.803 1.586-2.113 1.253-3.367a.618.618 0 0 1 .214-.655.617.617 0 0 1 .688-.042.62.62 0 0 1 .283.382c.473 1.779-.23 3.635-1.796 4.731a.629.629 0 0 1-.136.071l-26.522 9.922a6.773 6.773 0 0 1-2.415.469zm-98.354-63.555c-.33.008-.56.115-.703.32-.297.433-.264 1.297.088 2.253.656 1.782 19.984 52.009 20.178 52.512a.418.418 0 0 1 .019.054c.42 1.492 1.837 1.691 3.63 1.793.23.013.45.025.65.044l71.586 5.149c-1.434-4.075-19.173-54.483-19.903-56.62-.63-1.855-3.054-2.104-4.438-2.084h-.038l-71.07-3.421z"/>
            <path d="M70.963 182.783a.608.608 0 0 1-.542-.906.612.612 0 0 1 .312-.275l8.286-3.317c.47-.344.61-.641.587-.745-.024-.105-.272-.295-.846-.397l-10.633-1.884a.614.614 0 0 1 .214-1.208l10.637 1.885c1.378.246 1.737.94 1.826 1.333.09.393.066 1.201-1.126 2.055a.576.576 0 0 1-.129.071l-8.359 3.341a.612.612 0 0 1-.227.047zM71.065 174.083a6.568 6.568 0 0 1-1.12-.108l-2.464-.424a.612.612 0 0 1 .21-1.207l2.465.428c1.02.177 1.39.071 1.952-.09.168-.048.344-.098.55-.147l4.16-1.263-.175-.021-.124-.015-10.093-1.204a.602.602 0 0 1-.423-.223.62.62 0 0 1-.057-.691.61.61 0 0 1 .624-.303l10.224 1.22c1.493.186 2.313.288 2.398 1.003.081.674-.724.981-1.157 1.148l-.039.013-5 1.519-.042.011c-.19.043-.354.091-.509.135a4.521 4.521 0 0 1-1.38.219zM193.844 171.729h-.043l-26.236-1.814a.61.61 0 0 1-.371-1.08.633.633 0 0 1 .214-.118c.078-.024.16-.032.242-.024l26.236 1.814a.61.61 0 0 1 .561.632.616.616 0 0 1-.603.591v-.001zM75.729 163.514h-.042l-11.463-.77a.614.614 0 0 1-.35-1.064.607.607 0 0 1 .431-.158l11.46.768a.613.613 0 0 1-.04 1.224h.004zM128.788 169.574a.608.608 0 0 1-.606-.513.608.608 0 0 1 .02-.284c.01-.028.865-2.756 1.02-5.256a19.92 19.92 0 0 0-.738-6.498.609.609 0 0 1 .402-.75.612.612 0 0 1 .764.375 20.73 20.73 0 0 1 .796 6.948c-.166 2.655-1.034 5.433-1.075 5.55a.613.613 0 0 1-.583.428zM39.069 107.819a18.358 18.358 0 0 1-3.341-.314c-3.63-.673-6.085-2.277-6.19-2.345a.608.608 0 0 1-.281-.633.622.622 0 0 1 .263-.398.6.6 0 0 1 .47-.089.61.61 0 0 1 .222.097 17.25 17.25 0 0 0 5.74 2.163c3.377.626 5.65.054 5.672.049a.62.62 0 0 1 .24-.014.626.626 0 0 1 .403.239.612.612 0 0 1-.337.962c-.067.016-1.128.283-2.861.283zM85.152 77.713c-1.461 0-2.2-1.198-2.635-1.904a10.762 10.762 0 0 0-.183-.291c-.438-.654-1.404-2.329-.948-3.752.16-.501.575-1.18 1.626-1.58 1.275-.48 2.463-.12 3.236.268 1.14.574 2.113 1.586 2.366 2.465.391 1.362.1 3.703-2.302 4.57-.37.142-.763.218-1.16.224zm-.876-6.53c-.283 0-.565.05-.83.15-.486.183-.777.447-.893.805-.24.747.256 1.883.803 2.696.067.1.136.212.21.33.613.995 1.109 1.614 2.335 1.17 1.738-.626 1.767-2.288 1.54-3.078-.135-.469-.839-1.255-1.739-1.707a3.233 3.233 0 0 0-1.426-.366zM43.42 97.386a.613.613 0 0 1-.6-.728c.351-1.83.689-3.407.995-4.798.9-4.145 1.396-6.43.606-8.204-.537-1.302-1.793-3.292-3.009-5.217-2.351-3.724-3.284-5.329-3.04-6.226.271-1.214.664-2.513 1.01-3.659.46-1.517 1.088-3.596.854-4.009-.296-.438-.542-.588-.669-.574-.197.015-.546.354-.877 1.074-.952 2.166-2.526 5.396-3.498 7.179-.636 1.158.122 2.447 1.41 4.455a27.396 27.396 0 0 1 1.583 2.694.614.614 0 0 1-1.099.542 26.71 26.71 0 0 0-1.518-2.574c-1.27-1.982-2.47-3.852-1.454-5.707.96-1.76 2.512-4.937 3.456-7.093.522-1.135 1.16-1.734 1.897-1.794.648-.053 1.254.328 1.79 1.127.533.826.125 2.296-.705 5.036-.357 1.18-.725 2.4-.993 3.6-.05.625 1.722 3.424 2.888 5.28 1.243 1.97 2.525 4.005 3.1 5.39.946 2.126.389 4.693-.534 8.945-.301 1.386-.642 2.955-.991 4.77a.611.611 0 0 1-.602.492z"/>
            <path d="M32.944 77.086a.612.612 0 0 1-.575-.386c-.493-1.236-.966-2.33-1.384-3.294-1.52-3.51-2.438-5.625-1.511-8.087a78.102 78.102 0 0 0 1.155-3.147c.39-1.108.758-2.155 1.186-3.194 1.945-4.786 2.755-6.774 4.584-6.13 2.05.803 1.112 4.05.115 7.493a.38.38 0 0 1-.013.039c-.336.928-1.3 4.256-1.454 5.298-.17 1.022.838 2.87 1.205 3.445a.614.614 0 1 1-1.033.664c-.17-.265-1.661-2.64-1.385-4.296.168-1.132 1.132-4.468 1.506-5.51.647-2.238 1.616-5.601.631-5.986-.714-.249-1.583 1.896-3.025 5.446-.417 1.012-.78 2.045-1.164 3.136a83.095 83.095 0 0 1-1.17 3.183c-.747 1.985.05 3.823 1.493 7.158.422.973.9 2.074 1.399 3.33a.613.613 0 0 1-.574.84l.014-.002z"/>
            <path d="M29.464 75.148a.61.61 0 0 1-.558-.36c-.132-.289-3.227-7.153-2.43-10.85.738-3.301 1.708-7.577 2.154-9.184 1.06-3.931 1.713-5.365 2.686-5.894a1.76 1.76 0 0 1 1.428-.1c2.264.712 1.042 7.158.412 9.898a.613.613 0 0 1-1.194-.276c.963-4.19 1.16-8.22.411-8.454-.254-.082-.38-.042-.472.009-.724.394-1.431 2.704-2.088 5.14-.345 1.263-1.088 4.412-2.14 9.123-.712 3.298 2.318 10.012 2.348 10.079a.613.613 0 0 1-.557.869z"/>
            <path d="M31.847 95.179a.62.62 0 0 1-.391-.142.612.612 0 0 1-.193-.653l.125-.396c.392-1.224 1.05-3.27.689-4.66-.268-1.173-1.621-4.495-3.055-8.011C26.2 74.4 24.215 69.389 24.346 67.89c.386-4.918.68-8.093.872-9.434.548-4.098 1.01-5.626 1.901-6.272a1.7 1.7 0 0 1 1.354-.28c.918.151 1.303 1.262 1.513 2.076a.614.614 0 1 1-1.187.305c-.273-1.067-.534-1.174-.536-1.175-.23-.042-.345.006-.422.065-.662.482-1.069 2.904-1.41 5.45-.189 1.32-.48 4.47-.864 9.367-.115 1.324 2.604 7.992 4.592 12.859 1.517 3.718 2.827 6.93 3.112 8.183.446 1.716-.28 3.975-.712 5.325l-.123.386a.612.612 0 0 1-.589.433z"/>
            <path fill-rule="evenodd" clip-rule="evenodd" d="M73.882 58.983c-.45-.987-.149-2.152.72-2.468.859-.44 1.915.122 2.365 1.108.45.986.15 2.152-.717 2.466-.86.442-1.916-.12-2.368-1.106zM88.208 56.458c-.324-.995.103-2.17.97-2.484a1.893 1.893 0 0 1 2.376 1.233c.324.995-.103 2.17-.97 2.484-.996.324-2.045-.111-2.376-1.233z"/>
            <path d="M88.127 165.889c-.787 0-1.438-.142-1.927-.56-.471-.402-.715-1.014-.722-1.818.089-3.123 4.84-4.445 7.119-5.08l.419-.115c1.99-.574 3.836-1.417 5.79-2.304 2.862-1.301 5.821-2.641 9.597-3.353 3.528-.661 6.199.394 8.558 1.325 1.329.525 2.585 1.021 3.84 1.14a.614.614 0 0 1-.115 1.221c-1.427-.137-2.755-.663-4.173-1.221-2.311-.918-4.701-1.855-7.882-1.262-3.631.68-6.52 1.994-9.314 3.262-1.997.907-3.883 1.765-5.96 2.368l-.43.122c-1.844.512-6.163 1.714-6.226 3.911.007.629.222.812.292.873.533.459 2.003.229 3.559 0 .775-.115 1.652-.247 2.538-.316 2.621-.203 5.64-.868 7.844-1.353.839-.184 1.565-.344 2.067-.43a.612.612 0 1 1 .209 1.207 54.15 54.15 0 0 0-2.011.42c-2.238.493-5.306 1.169-8.012 1.377-.843.066-1.66.188-2.451.305-.977.15-1.856.281-2.609.281z"/>
            <path d="M87.217 170.073c-1.114 0-2.106-.094-2.794-.345-2.398-.715-4.067-1.951-6.306-3.987a147.397 147.397 0 0 0-3.889-3.409c-.5-.427-1.043-.891-1.688-1.446-1.349-1.16-1.848-2.919-1.161-4.09.327-.559 1.405-1.745 4.323-.678 2.007.682 3.536 2.006 5.015 3.288 1.647 1.426 3.201 2.772 5.146 2.84a.613.613 0 1 1-.022 1.226h-.022c-2.376-.084-4.09-1.567-5.904-3.14-1.39-1.203-2.827-2.449-4.62-3.057-1.436-.526-2.5-.47-2.86.142-.33.564-.078 1.696.906 2.541.643.554 1.184 1.017 1.684 1.443 1.263 1.083 2.269 1.938 3.916 3.434 2.11 1.915 3.667 3.077 5.849 3.725l.035.011c1.68.613 6.464.115 10.46-.656 5.838-1.085 10.165-1.492 13.64-1.827.803-.077 1.568-.15 2.296-.23 5.127-.472 7.057-.155 9.962.626a.62.62 0 0 1 .385.282.613.613 0 0 1-.703.901c-2.761-.741-4.6-1.041-9.529-.59-.728.076-1.493.15-2.303.23-3.453.328-7.749.738-13.53 1.812-1.017.201-5.14.954-8.286.954z"/>
            <path d="M82.034 161.582a.613.613 0 0 1-.604-.515c-.263-1.644-.562-2.826-.824-3.867-.362-1.429-.647-2.558-.657-4.133-.013-1.328.727-2.343 1.799-2.468.876-.098 3.887.297 5.993 9.661a.613.613 0 0 1-1.196.268c-1.608-7.133-3.746-8.819-4.656-8.711-.427.049-.72.559-.715 1.24.01 1.427.279 2.492.62 3.84.269 1.067.574 2.277.846 3.974a.606.606 0 0 1-.283.618.604.604 0 0 1-.224.083.546.546 0 0 1-.1.01z"/>
            <path d="M87.466 160.884a.612.612 0 0 1-.535-.313l-.048-.084c-.212-.373-.255-.504-.204-.94.052-.449.076-.9.073-1.351-.019-.385-.07-.88-.123-1.405-.176-1.714-.376-3.655.196-5.051.382-.97 1.182-1.493 2.08-1.361 1.474.221 3.344 2.357 3.763 7.657a.613.613 0 0 1-1.222.096c-.36-4.554-1.825-6.406-2.722-6.544-.409-.061-.64.295-.761.605-.46 1.121-.269 2.978-.115 4.471.055.541.107 1.053.129 1.504.004.508-.023 1.016-.08 1.52 0 .032-.008.059-.01.082l.062.114.05.088a.612.612 0 0 1-.533.918v-.006zM94.024 158.71a.615.615 0 0 1-.612-.583 28.996 28.996 0 0 0-.053-.82c-.1-1.347-.202-2.741.437-4.078a2.224 2.224 0 0 1 2.244-1.331c.795.09 2.225.732 2.857 4.019a.607.607 0 0 1-.082.475.615.615 0 0 1-1.121-.246c-.344-1.813-1.02-2.947-1.792-3.035-.45-.05-.84.276-.992.624-.508 1.062-.42 2.236-.328 3.478.02.286.04.574.055.851a.613.613 0 0 1-.584.641l-.03.005z"/>
        </g>
    </g>
    <defs>
        <clipPath id="xy1tmfybua">
            <rect width="176" height="176" rx="88" fill="#fff"/>
        </clipPath>
        <clipPath id="jyzln53czc">
            <path fill="#fff" transform="translate(-27.28 11.44)" d="M0 0h221.739v176H0z"/>
        </clipPath>
        <linearGradient id="4bv04phbmb" x1="110" y1="7.04" x2="-4.235" y2="89.402" gradientUnits="userSpaceOnUse">
            <stop stop-color="#fff" stop-opacity=".64"/>
            <stop offset="1" stop-color="#fff" stop-opacity=".21"/>
        </linearGradient>
    </defs>
</svg>
